<?xml version="1.0" encoding="UTF-8"?>
<!DOCTYPE svg PUBLIC "-//W3C//DTD SVG 1.1//EN" "http://www.w3.org/Graphics/SVG/1.1/DTD/svg11.dtd">
<svg xmlns="http://www.w3.org/2000/svg" version="1.1" width="131px" height="133px" style="shape-rendering:geometricPrecision; text-rendering:geometricPrecision; image-rendering:optimizeQuality; fill-rule:evenodd; clip-rule:evenodd" xmlns:xlink="http://www.w3.org/1999/xlink">
<g><path style="opacity:0.988" fill="#3f96cb" d="M 106.5,17.5 C 102.176,15.9998 98.3424,13.6665 95,10.5C 93.6012,11.2266 92.1012,11.7266 90.5,12C 92.5252,13.6772 94.8585,14.6772 97.5,15C 99.0544,17.2869 100.721,19.4535 102.5,21.5C 86.9104,10.0151 69.577,6.5151 50.5,11C 34.062,16.2785 21.7287,26.4452 13.5,41.5C 14.5614,38.1365 15.5614,34.8032 16.5,31.5C 15.325,31.281 14.325,31.6143 13.5,32.5C 12.8671,34.7855 11.5338,36.4522 9.5,37.5C 24.7189,10.0614 48.0522,-1.10529 79.5,4C 89.9178,5.95395 98.9178,10.454 106.5,17.5 Z"/></g>
<g><path style="opacity:1" fill="#0b4675" d="M 75.5,21.5 C 87.2,21.0199 91.7,26.3532 89,37.5C 82.2285,45.4648 75.8952,45.1315 70,36.5C 68.5128,30.1633 70.3462,25.1633 75.5,21.5 Z"/></g>
<g><path style="opacity:1" fill="#409ad2" d="M 106.5,17.5 C 125.493,33.7988 132.826,54.4654 128.5,79.5C 126.955,80.2297 126.122,81.563 126,83.5C 125.667,82.5 125.333,81.5 125,80.5C 124.828,73.654 124.328,66.9874 123.5,60.5C 121.945,52.6664 119.445,44.9997 116,37.5C 112.041,31.7075 107.541,26.3742 102.5,21.5C 100.721,19.4535 99.0544,17.2869 97.5,15C 94.8585,14.6772 92.5252,13.6772 90.5,12C 92.1012,11.7266 93.6012,11.2266 95,10.5C 98.3424,13.6665 102.176,15.9998 106.5,17.5 Z"/></g>
<g><path style="opacity:1" fill="#0a4675" d="M 99.5,39.5 C 97.6996,41.8283 96.533,44.495 96,47.5C 94.2559,46.9638 92.4226,46.6304 90.5,46.5C 89.1585,48.0049 87.4918,48.6715 85.5,48.5C 83.5,48.5 81.5,48.5 79.5,48.5C 79.5,50.1667 79.5,51.8333 79.5,53.5C 77.5082,53.3285 75.8415,53.9951 74.5,55.5C 72.966,62.2147 70.6327,68.5481 67.5,74.5C 64.2037,75.3913 61.537,76.7247 59.5,78.5C 59.7135,80.1439 59.3802,81.6439 58.5,83C 61.5608,84.5304 64.5608,86.0304 67.5,87.5C 60.5708,91.8823 53.4041,95.8823 46,99.5C 45.3076,98.9747 44.8076,98.3081 44.5,97.5C 54.3601,87.6165 60.6934,75.7832 63.5,62C 62.7005,57.8997 61.2005,54.0664 59,50.5C 55.6057,46.1019 52.6057,41.4352 50,36.5C 49.2714,31.5496 51.1047,30.0496 55.5,32C 68.0052,48.2034 82.6718,50.7034 99.5,39.5 Z"/></g>
<g><path style="opacity:1" fill="#0c4c7d" d="M 84.5,73.5 C 84.5,72.1667 84.5,70.8333 84.5,69.5C 80.6611,68.95 80.6611,67.95 84.5,66.5C 85.9961,70.2766 87.6627,70.2766 89.5,66.5C 88.9264,64.9411 88.2598,63.4411 87.5,62C 88.4491,61.3828 89.2825,61.5494 90,62.5C 92.2807,60.1128 94.4474,57.7795 96.5,55.5C 95.8645,54.0337 95.0312,52.7003 94,51.5C 92.4157,52.8613 90.5824,53.528 88.5,53.5C 88.5,52.1667 88.5,50.8333 88.5,49.5C 87.209,49.7373 86.209,49.404 85.5,48.5C 87.4918,48.6715 89.1585,48.0049 90.5,46.5C 92.4226,46.6304 94.2559,46.9638 96,47.5C 96.533,44.495 97.6996,41.8283 99.5,39.5C 101.994,35.6616 105.327,32.9949 109.5,31.5C 105.782,48.2735 97.4484,62.2735 84.5,73.5 Z"/></g>
<g><path style="opacity:1" fill="#064a7e" d="M 85.5,48.5 C 86.209,49.404 87.209,49.7373 88.5,49.5C 88.5,50.8333 88.5,52.1667 88.5,53.5C 90.5824,53.528 92.4157,52.8613 94,51.5C 95.0312,52.7003 95.8645,54.0337 96.5,55.5C 94.4474,57.7795 92.2807,60.1128 90,62.5C 89.2825,61.5494 88.4491,61.3828 87.5,62C 88.2598,63.4411 88.9264,64.9411 89.5,66.5C 87.6627,70.2766 85.9961,70.2766 84.5,66.5C 80.6611,67.95 80.6611,68.95 84.5,69.5C 84.5,70.8333 84.5,72.1667 84.5,73.5C 79.4253,78.8727 73.7587,83.5394 67.5,87.5C 64.5608,86.0304 61.5608,84.5304 58.5,83C 59.3802,81.6439 59.7135,80.1439 59.5,78.5C 61.537,76.7247 64.2037,75.3913 67.5,74.5C 70.6327,68.5481 72.966,62.2147 74.5,55.5C 75.8415,53.9951 77.5082,53.3285 79.5,53.5C 79.5,51.8333 79.5,50.1667 79.5,48.5C 81.5,48.5 83.5,48.5 85.5,48.5 Z"/></g>
<g><path style="opacity:1" fill="#0e4f81" d="M 37.5,41.5 C 47.8488,41.6843 51.3488,46.6843 48,56.5C 42.3176,60.7925 36.9842,60.4592 32,55.5C 29.7959,49.2831 31.6292,44.6164 37.5,41.5 Z"/></g>
<g><path style="opacity:1" fill="#0c4b7c" d="M 17.5,54.5 C 18.8734,54.3433 20.2068,54.51 21.5,55C 32.9049,65.7574 44.7382,66.2574 57,56.5C 58.0588,56.6301 58.8921,57.1301 59.5,58C 56.1088,68.1771 51.9421,78.0104 47,87.5C 41.6909,94.6507 34.8575,99.6507 26.5,102.5C 28.3077,96.8702 30.141,91.2035 32,85.5C 32.8229,81.2616 32.1562,77.2616 30,73.5C 25.5264,69.2058 21.5264,64.5391 18,59.5C 17.5065,57.8659 17.3398,56.1992 17.5,54.5 Z"/></g>
<g><path style="opacity:0.996" fill="#4197ca" d="M 90.5,115.5 C 90.8039,114.85 91.1373,114.183 91.5,113.5C 88.8976,112.868 86.5643,111.868 84.5,110.5C 90.811,111.915 95.9776,109.915 100,104.5C 100.611,100.912 99.1114,99.7458 95.5,101C 94.6719,102.992 93.3386,104.492 91.5,105.5C 91.6653,101.818 91.4986,98.1516 91,94.5C 90.2753,93.9415 89.4419,93.6082 88.5,93.5C 86.8228,94.1869 85.1561,94.8535 83.5,95.5C 84.4577,94.0384 85.6244,92.7051 87,91.5C 87.9931,87.5667 86.4931,85.2334 82.5,84.5C 80.6171,84.8757 79.1171,85.8757 78,87.5C 77.8906,91.8377 77.0573,96.0044 75.5,100C 76.3195,101.8 76.9862,103.634 77.5,105.5C 76.1667,105.5 75.5,106.167 75.5,107.5C 72.3952,104.773 71.0618,101.273 71.5,97C 72.8593,82.9885 80.526,77.3218 94.5,80C 105.607,86.3177 108.441,95.151 103,106.5C 99.7727,110.907 95.606,113.907 90.5,115.5 Z M 83.5,95.5 C 82.3734,96.1217 81.3734,96.955 80.5,98C 81.3161,99.923 81.9828,101.923 82.5,104C 81.2572,106.303 79.5906,106.803 77.5,105.5C 76.9862,103.634 76.3195,101.8 75.5,100C 77.0573,96.0044 77.8906,91.8377 78,87.5C 79.1171,85.8757 80.6171,84.8757 82.5,84.5C 86.4931,85.2334 87.9931,87.5667 87,91.5C 85.6244,92.7051 84.4577,94.0384 83.5,95.5 Z M 95.5,85.5 C 100.059,87.7792 101.726,91.2792 100.5,96C 99.2713,96.7811 97.938,97.2811 96.5,97.5C 92.6914,95.5601 90.8581,92.5601 91,88.5C 92.6516,87.6006 94.1516,86.6006 95.5,85.5 Z"/></g>
<g><path style="opacity:0.996" fill="#429acf" d="M 123.5,60.5 C 124.328,66.9874 124.828,73.654 125,80.5C 125.333,81.5 125.667,82.5 126,83.5C 126.122,81.563 126.955,80.2297 128.5,79.5C 123.333,101.997 109.999,117.33 88.5,125.5C 86.3037,125.59 84.137,125.923 82,126.5C 80.5962,126.491 79.4296,125.991 78.5,125C 80.1667,124.667 81.8333,124.333 83.5,124C 85.8045,122.077 88.1379,120.244 90.5,118.5C 113.36,106.133 124.36,86.7996 123.5,60.5 Z"/></g>
<g><path style="opacity:1" fill="#3f98ce" d="M 13.5,41.5 C 5.41754,63.1732 7.91754,83.5065 21,102.5C 40.5754,123.352 63.742,128.685 90.5,118.5C 88.1379,120.244 85.8045,122.077 83.5,124C 81.8333,124.333 80.1667,124.667 78.5,125C 79.4296,125.991 80.5962,126.491 82,126.5C 84.137,125.923 86.3037,125.59 88.5,125.5C 60.2726,135.041 36.106,128.707 16,106.5C 0.650837,84.6159 -1.51583,61.6159 9.5,37.5C 11.5338,36.4522 12.8671,34.7855 13.5,32.5C 14.325,31.6143 15.325,31.281 16.5,31.5C 15.5614,34.8032 14.5614,38.1365 13.5,41.5 Z"/></g>
<g><path style="opacity:1" fill="#3c9dd7" d="M 91.5,105.5 C 89.369,106.314 87.0356,106.814 84.5,107C 81.9296,108.349 81.9296,109.516 84.5,110.5C 86.5643,111.868 88.8976,112.868 91.5,113.5C 91.1373,114.183 90.8039,114.85 90.5,115.5C 76.232,119.909 62.232,119.409 48.5,114C 55.0932,113.981 61.4265,113.148 67.5,111.5C 70.2542,110.359 72.9209,109.025 75.5,107.5C 75.5,106.167 76.1667,105.5 77.5,105.5C 79.5906,106.803 81.2572,106.303 82.5,104C 81.9828,101.923 81.3161,99.923 80.5,98C 81.3734,96.955 82.3734,96.1217 83.5,95.5C 85.1561,94.8535 86.8228,94.1869 88.5,93.5C 89.4419,93.6082 90.2753,93.9415 91,94.5C 91.4986,98.1516 91.6653,101.818 91.5,105.5 Z"/></g>
<g><path style="opacity:0.965" fill="#448bb4" d="M 67.5,111.5 C 61.4265,113.148 55.0932,113.981 48.5,114C 62.232,119.409 76.232,119.909 90.5,115.5C 80.5666,119.77 70.2332,120.937 59.5,119C 54.0788,117.973 49.0788,115.973 44.5,113C 52.1854,112.647 59.8521,112.147 67.5,111.5 Z"/></g>
</svg>
